<?xml version="1.0" encoding="UTF-8" standalone="no"?>
<!-- Created with Inkscape (http://www.inkscape.org/) -->

<svg
   width="512"
   height="512"
   viewBox="0 0 135.46666 135.46667"
   version="1.1"
   id="svg1"
   xml:space="preserve"
   inkscape:version="1.4.3 (0d15f75042, 2025-12-25)"
   sodipodi:docname="favicon"
   xmlns:inkscape="http://www.inkscape.org/namespaces/inkscape"
   xmlns:sodipodi="http://sodipodi.sourceforge.net/DTD/sodipodi-0.dtd"
   xmlns="http://www.w3.org/2000/svg"
   xmlns:svg="http://www.w3.org/2000/svg"><sodipodi:namedview
     id="namedview1"
     pagecolor="#ffffff"
     bordercolor="#000000"
     borderopacity="0.25"
     inkscape:showpageshadow="2"
     inkscape:pageopacity="0.0"
     inkscape:pagecheckerboard="0"
     inkscape:deskcolor="#d1d1d1"
     inkscape:document-units="px"
     showguides="true"
     inkscape:zoom="0.36129727"
     inkscape:cx="-289.23551"
     inkscape:cy="456.68765"
     inkscape:window-width="1663"
     inkscape:window-height="1037"
     inkscape:window-x="0"
     inkscape:window-y="0"
     inkscape:window-maximized="1"
     inkscape:current-layer="layer1"><sodipodi:guide
       position="97.38851,101.42432"
       orientation="1,0"
       id="guide4"
       inkscape:locked="false" /><sodipodi:guide
       position="87.455541,91.495866"
       orientation="0,-1"
       id="guide5"
       inkscape:locked="false" /><sodipodi:guide
       position="69.502801,135.46667"
       orientation="1,0"
       id="guide6"
       inkscape:locked="false" /></sodipodi:namedview><defs
     id="defs1"><inkscape:path-effect
       effect="offset"
       id="path-effect4"
       is_visible="true"
       lpeversion="1.3"
       linejoin_type="miter"
       unit="px"
       offset="7"
       miter_limit="4"
       attempt_force_join="false"
       update_on_knot_move="true" /><inkscape:path-effect
       effect="offset"
       id="path-effect3"
       is_visible="true"
       lpeversion="1.3"
       linejoin_type="miter"
       unit="px"
       offset="6"
       miter_limit="4"
       attempt_force_join="false"
       update_on_knot_move="true" /></defs><g
     inkscape:label="Слой 1"
     inkscape:groupmode="layer"
     id="layer1"><g
       id="g5"
       transform="matrix(2.5553414,0,0,2.5553414,-141.90269,-24.258768)"><path
         id="path1-60"
         style="fill:#0874bf;fill-opacity:1;stroke-width:1.69333"
         d="m 71.988584,16.877363 c -2.793998,0 -5.079793,2.286306 -5.079793,5.08031 v 23.706563 c 0,2.794003 2.285795,5.079793 5.079793,5.079793 h 21.11499 l -0.875916,-1.751831 -2.143021,-1.072286 -1.125513,-0.562239 h -16.97054 c -0.931335,0 -1.693437,-0.762103 -1.693437,-1.693437 0,-0.931335 0.762102,-1.693437 1.693437,-1.693437 h 13.531474 c -9.99e-4,-0.03054 -0.0016,-0.06081 -0.0016,-0.09147 0,-1.061541 0.602309,-2.060223 1.571997,-2.545064 l 2.994133,-1.496033 2.143021,-1.072286 1.070219,-2.140955 1.498102,-2.994132 c 0.53285,-1.065671 1.5977,-1.53324 2.54868,-1.53324 0.0147,0 0.0292,2.95e-4 0.0439,5.17e-4 V 18.5708 c 0,-0.931334 -0.7621,-1.693437 -1.69344,-1.693437 z m 9.313643,6.773747 h 2.85719 v 3.386356 h 3.704166 v 2.857706 h -3.704166 v 7.302397 h -2.85719 v -7.302397 h -4.233333 v -2.857706 h 4.233333 z"
         sodipodi:nodetypes="ssssccccssscscccccscsssccccccccccccc" /><path
         d="m 106.85488,43.082652 -2.99376,-1.496883 -2.67444,-1.337218 -0.0298,-0.0298 -1.337216,-2.674433 -1.49689,-2.993766 c -0.3393,-0.678585 -1.44698,-0.678585 -1.78628,0 l -1.49688,2.993766 -1.337217,2.674433 -0.0298,0.0298 -2.67443,1.337218 -2.993765,1.496883 c -0.3393,0.169649 -0.548858,0.518918 -0.548858,0.88815 0,0.369246 0.209554,0.718504 0.548858,0.88815 l 2.993765,1.496883 2.67443,1.337217 0.0298,0.0298 1.337217,2.67443 1.49688,2.993767 c 0.16965,0.3393 0.51891,0.54885 0.88814,0.54885 0.36925,0 0.71851,-0.209554 0.88815,-0.548858 l 1.49688,-2.993766 1.337226,-2.674434 0.0298,-0.0298 2.67443,-1.337213 2.99377,-1.496883 c 0.3393,-0.16965 0.54885,-0.518911 0.54885,-0.888143 0,-0.369247 -0.20956,-0.718504 -0.54886,-0.88815 z m -1.94595,-9.590032 -0.93804,2.055721 -2.05572,0.938045 2.05572,0.938046 0.93804,2.05572 0.93805,-2.05572 2.05572,-0.938046 -2.05572,-0.938045 z"
         id="path3"
         style="fill:#19bddd;fill-opacity:1;stroke-width:0.997921" /><path
         d="m 80.558906,45.332635 h -5.872438 c -0.538307,0 -0.97874,0.440433 -0.97874,0.97874 v 8.319286 c 0,0.176173 0.09298,0.337666 0.244686,0.425752 0.151703,0.0881 0.337666,0.0881 0.489369,0 l 3.180904,-1.820455 3.180905,1.820455 c 0.07341,0.04404 0.161487,0.06363 0.244683,0.06363 0.08319,0 0.171272,-0.01957 0.244686,-0.06363 0.151703,-0.08808 0.244685,-0.249579 0.244685,-0.425752 v -8.319286 c 0,-0.538307 -0.440433,-0.97874 -0.97874,-0.97874"
         id="path1"
         style="fill:#0874bf;fill-opacity:1;stroke-width:0.489369" /></g></g></svg>
